<svg id="Layer_1" data-name="Layer 1" xmlns="http://www.w3.org/2000/svg" width="282.9mm" height="100.1mm" viewBox="0 0 801.9 283.8"><path d="M743.7,55.1V23h55.1V72.7H783.9V55.1Zm14.9-24.8V47.8H784V30.3Z" transform="translate(-37.4 -23)" style="fill:#231f20"/><path d="M723.1,65.4V51.5H685.6V44.2h37.5V30.3H688.6L682.2,23h55.9V72.7H682.4l6.4-7.3Z" transform="translate(-37.4 -23)" style="fill:#231f20"/><path d="M622.9,55.1V23H678V72.7H663.1V55.1Zm14.9-24.8V47.8h25.4V30.3Z" transform="translate(-37.4 -23)" style="fill:#231f20"/><path d="M576,23V65.4h26.5V23h14.8V72.7H561.4V23Z" transform="translate(-37.4 -23)" style="fill:#231f20"/><path d="M554.3,72.7H539.4V23h14.9Z" transform="translate(-37.4 -23)" style="fill:#231f20"/><path d="M476.8,23h14.6V49.8L532.3,23V72.7H517.5v-27l-40.7,27Z" transform="translate(-37.4 -23)" style="fill:#231f20"/><path d="M414.7,72.7V23h56.4V59L459,72.7Zm14.9-42.4V65.4h18.2l8.5-9.6V30.3Z" transform="translate(-37.4 -23)" style="fill:#231f20"/><path d="M332.2,23h14.6V49.8L387.7,23V72.7H372.9v-27l-40.7,27Z" transform="translate(-37.4 -23)" style="fill:#231f20"/><path d="M270.1,72.7V23h56.4V59L314.4,72.7ZM285,30.3V65.4h18.2l8.5-9.6V30.3Z" transform="translate(-37.4 -23)" style="fill:#231f20"/><path d="M241,72.7h-9.3L205.4,23H220l16.3,33.2L252.7,23h14.6Z" transform="translate(-37.4 -23)" style="fill:#231f20"/><path d="M202.6,23V72.7H187.4V51.5H161.1V72.7H146.2V23Zm-41.1,7.3V44.2h25.7V30.3Z" transform="translate(-37.4 -23)" style="fill:#231f20"/><path d="M469.5,157.9H452.3l-26.4-49.7H482l-6.3,7.3H448.5Z" transform="translate(-37.4 -23)" style="fill:#231f20"/><path d="M382.2,157.9l-14.8-16.7,14.8-16.5h26.9v-9.2H373.7l-6.3-7.3h54.8V132H393.3l-8.2,9.2,8.2,9.4h24.8l6.3,7.3Z" transform="translate(-37.4 -23)" style="fill:#231f20"/><path d="M46.5,252.2H41.3l1.9,2.9L41.3,258h5.2v2.7H37.4l3.7-5.6-3.7-5.6h9.1Z" transform="translate(-37.4 -23)" style="fill:#231f20"/><path d="M46.5,241.1H42.6v4.7h3.9v2.7H37.4v-2.7h3.9v-4.7H37.4v-2.7h9.1Z" transform="translate(-37.4 -23)" style="fill:#231f20"/><path d="M37.4,233.7V231h4.3l4.8-4.3v3.1l-2.8,2.5,2.8,2.5v3.1l-4.8-4.2Z" transform="translate(-37.4 -23)" style="fill:#231f20"/><path d="M41.1,216.7l-3.7-5.5h9.1v2.7H41.3l1.9,2.8-1.9,2.9h5.2v2.7H37.4Z" transform="translate(-37.4 -23)" style="fill:#231f20"/><path d="M37.4,199.9h9.1v10.2H39.9l-2.5-2.2Zm7.7,2.7H38.8v3.3l1.7,1.5h4.6Z" transform="translate(-37.4 -23)" style="fill:#231f20"/><path d="M46.5,191.2H38.8V196h7.7v2.7H37.4V188.6h9.1Z" transform="translate(-37.4 -23)" style="fill:#231f20"/><path d="M38.8,184.7h7.7v2.7H37.4v-7.6l1.4-1.1Z" transform="translate(-37.4 -23)" style="fill:#231f20"/><path d="M46.5,177.9H37.4v-7.3l4.5-2.9,4.6,2.9Zm-1.4-2.7v-2.7l-3.2-2.1-3.1,2.1v2.7Z" transform="translate(-37.4 -23)" style="fill:#231f20"/><path d="M46.5,155.6H38.8v4.8h7.7v2.7H37.4V152.9h9.1Z" transform="translate(-37.4 -23)" style="fill:#231f20"/><path d="M37.4,137.8h9.1v10.3H39.9l-2.5-2.2Zm7.7,2.7H38.8v3.3l1.7,1.6h4.6Z" transform="translate(-37.4 -23)" style="fill:#231f20"/><path d="M40.6,126.8h5.9v10H37.4v-2.7h3.2Zm4.5,2.7H42v4.6h3.1Z" transform="translate(-37.4 -23)" style="fill:#231f20"/><path d="M38.8,122.9h2.5v-6.8h1.3v6.8h2.5v-6.3l1.4-1.1v10.1H37.4V115.5l1.4,1.2Z" transform="translate(-37.4 -23)" style="fill:#231f20"/><path d="M46.5,104.6v2.7H41.6l4.9,7.4H37.4V112h4.9l-4.9-7.4Z" transform="translate(-37.4 -23)" style="fill:#231f20"/><path d="M37.4,97.1h5.2l-1.8-2.9,1.8-2.9H37.4V88.6h9.1l-3.7,5.6,3.7,5.5H37.4Z" transform="translate(-37.4 -23)" style="fill:#231f20"/><path d="M38.8,84.8h2.5V77.9h1.3v6.9h2.5V78.5l1.4-1.2V87.5H37.4V77.4l1.4,1.1Z" transform="translate(-37.4 -23)" style="fill:#231f20"/><path d="M43,70.1h1.9v1.8H43Zm-4,0h1.8v1.8H39Z" transform="translate(-37.4 -23)" style="fill:#231f20"/><path d="M40.2,57.3l2.1,1.4L44,57.3,46.5,59v7.8L44,68.5l-1.7-1.3-2.1,1.3-2.8-1.7V59Zm3.8,8,1.1-.9v-3L44,60.5l-1.1.9v3Zm-3.8-4.8-1.4.9v3l1.5.9,1.3-.8V61.4Z" transform="translate(-37.4 -23)" style="fill:#231f20"/><path d="M838.4,256.8v17.5H824.2l-5.5-8.8,5.5-8.7Zm-5.3,2.5h-5.3l-4,6.2,4,6.2h5.3Z" transform="translate(-37.4 -23)" style="fill:#231f20"/><path d="M812.4,271.7v-4.9H799.2v-2.6h13.2v-4.9H800.2l-2.2-2.5h19.7v17.5H798.1l2.2-2.6Z" transform="translate(-37.4 -23)" style="fill:#231f20"/><path d="M777,264.2h14.4v-3.6l-1.1-1.3H778.6l-2.2-2.5h17.9l2.4,2.7v7.3H782.3v3.8l1,1.1h14l-2.2,2.6H779.3l-2.3-2.7Z" transform="translate(-37.4 -23)" style="fill:#231f20"/><path d="M774.3,274.3H769V256.8h5.3Z" transform="translate(-37.4 -23)" style="fill:#231f20"/><path d="M751.8,264.7v7h9.4V259.3H748l-2.2-2.5h20.7v17.5H746.6v-9.6Z" transform="translate(-37.4 -23)" style="fill:#231f20"/><path d="M724.7,256.8h5.2v9.4l14.4-9.4v17.5H739v-9.6l-14.3,9.6Z" transform="translate(-37.4 -23)" style="fill:#231f20"/><path d="M717.2,271.7v-4.9H704v-2.6h13.2v-4.9H705l-2.2-2.5h19.7v17.5H702.8l2.3-2.6Z" transform="translate(-37.4 -23)" style="fill:#231f20"/><path d="M701.3,256.8v17.5H687.1l-5.5-8.8,5.5-8.7Zm-5.2,2.5h-5.3l-4,6.2,4,6.2h5.3Z" transform="translate(-37.4 -23)" style="fill:#231f20"/><path d="M672.6,256.8v17.5h-5.4v-7.5H658v7.5h-5.3V256.8Zm-14.5,2.5v4.9h9v-4.9Z" transform="translate(-37.4 -23)" style="fill:#231f20"/><path d="M631.2,256.8h5.1v9.4l14.4-9.4v17.5h-5.2v-9.6l-14.3,9.6Z" transform="translate(-37.4 -23)" style="fill:#231f20"/><path d="M629.1,256.8v17.5H615l-5.6-8.8,5.6-8.7Zm-5.2,2.5h-5.3l-4,6.2,4,6.2h5.3Z" transform="translate(-37.4 -23)" style="fill:#231f20"/><path d="M600.4,256.8v17.5H586.3l-5.6-8.8,5.6-8.7Zm-5.2,2.5h-5.3l-4,6.2,4,6.2h5.3Z" transform="translate(-37.4 -23)" style="fill:#231f20"/><path d="M559.4,274.3V256.8h19.8v12.6l-4.2,4.9Zm5.2-15v12.4H571l3-3.4v-9Z" transform="translate(-37.4 -23)" style="fill:#231f20"/><path d="M551.7,271.7V259.3H539.6l-2.2-2.5h19.7v17.5H539.6l-2.2-2.6Z" transform="translate(-37.4 -23)" style="fill:#231f20"/><path d="M521.1,256.8v14.9h9.3V256.8h5.2v17.5H516V256.8Z" transform="translate(-37.4 -23)" style="fill:#231f20"/><path d="M508.5,274.3V264.2l-5.6,3.6-5.6-3.6v10.1h-5.1V256.8l10.7,7,10.8-7v17.5Z" transform="translate(-37.4 -23)" style="fill:#231f20"/><path d="M484.7,271.7v-4.9H471.4v-2.6h13.3v-4.9H472.5l-2.2-2.5h19.6v17.5H470.3l2.3-2.6Z" transform="translate(-37.4 -23)" style="fill:#231f20"/><path d="M449.2,256.8h5.1v9.4l14.4-9.4v17.5h-5.2v-9.6l-14.3,9.6Z" transform="translate(-37.4 -23)" style="fill:#231f20"/><path d="M425.5,256.8h22.7l-2.2,2.5h-6.6v15h-5.2v-15h-6.5Z" transform="translate(-37.4 -23)" style="fill:#231f20"/><path d="M419.2,271.7v-4.9H406v-2.6h13.2v-4.9H407l-2.2-2.5h19.7v17.5H404.9l2.2-2.6Z" transform="translate(-37.4 -23)" style="fill:#231f20"/><path d="M403.3,256.8v17.5H389.2l-5.6-8.8,5.6-8.7Zm-5.2,2.5h-5.3l-4,6.2,4,6.2h5.3Z" transform="translate(-37.4 -23)" style="fill:#231f20"/><path d="M355.4,263.4h1.5v-6.6h17.7v17.5H355.4Zm5.2-4.1v4.1h8.8v-4.1Zm0,6.7v5.7h8.8V266Z" transform="translate(-37.4 -23)" style="fill:#231f20"/><path d="M346.2,274.3h-5.3V266l-8.2-9.2h6.1l4.8,5.4,4.8-5.4h6l-8.2,9.2Z" transform="translate(-37.4 -23)" style="fill:#231f20"/><path d="M326.7,263.4v-3.5h3.5v3.5Zm0,7.8v-3.5h3.5v3.5Z" transform="translate(-37.4 -23)" style="fill:#231f20"/><path d="M296.3,268.1V256.8h19.4v17.5h-5.3v-6.2Zm5.2-8.8v6.2h9v-6.2Z" transform="translate(-37.4 -23)" style="fill:#231f20"/><path d="M293.8,274.3h-5.3V256.8h5.3Z" transform="translate(-37.4 -23)" style="fill:#231f20"/><path d="M266.6,268.1V256.8H286v17.5h-5.2v-6.2Zm5.3-8.8v6.2h8.9v-6.2Z" transform="translate(-37.4 -23)" style="fill:#231f20"/><path d="M259.1,271.7v-4.9H245.9v-2.6h13.2v-4.9H246.9l-2.2-2.5h19.7v17.5H244.8l2.2-2.6Z" transform="translate(-37.4 -23)" style="fill:#231f20"/><path d="M228.9,274.3V256.8h5.2v14.9h9.6l-2.2,2.6Z" transform="translate(-37.4 -23)" style="fill:#231f20"/><path d="M207,274.3V256.8h19.9v12.6l-4.3,4.9Zm5.3-15v12.4h6.4l3-3.4v-9Z" transform="translate(-37.4 -23)" style="fill:#231f20"/><path d="M185.1,264.2h14.4v-3.6l-1.1-1.3H186.7l-2.2-2.5h17.8l2.4,2.7v7.3H190.4v3.8l.9,1.1h14.1l-2.3,2.6H187.4l-2.3-2.7Z" transform="translate(-37.4 -23)" style="fill:#231f20"/><path d="M168.6,256.8v7.4h9v-7.4h5.2v17.5h-5.2v-7.5h-9v7.5h-5.3V256.8Z" transform="translate(-37.4 -23)" style="fill:#231f20"/><path d="M828.1,292.8v5.9h7.1v-5.9h4.2v13.9h-4.2v-5.9h-7.1v5.9h-4.2V292.8Z" transform="translate(-37.4 -23)" style="fill:#231f20"/><path d="M805.1,292.8h18l-1.8,2.1h-5.2v11.8H812V294.9h-5.2Z" transform="translate(-37.4 -23)" style="fill:#231f20"/><path d="M787.1,292.8h18l-1.8,2.1h-5.2v11.8H794V294.9h-5.2Z" transform="translate(-37.4 -23)" style="fill:#231f20"/><path d="M770.9,301.8v-9h15.4v13.9h-4.2v-4.9Zm4.1-6.9v4.8h7.1v-4.8Z" transform="translate(-37.4 -23)" style="fill:#231f20"/><path d="M753.5,298.7h11.4v-2.8l-.9-1h-9.3l-1.7-2.1h14.1L769,295v5.8H757.7v3l.7.9h11.2l-1.8,2H755.3l-1.8-2.1Z" transform="translate(-37.4 -23)" style="fill:#231f20"/><path d="M747.6,298.1v-2.8h2.9v2.8Zm0,6.2v-2.8h2.9v2.8Z" transform="translate(-37.4 -23)" style="fill:#231f20"/><path d="M742.4,306.7l-12.3-13.9h2.8l12.4,13.9Zm-4.8,0-12.4-13.8h2.9l12.3,13.8Z" transform="translate(-37.4 -23)" style="fill:#231f20"/><path d="M721.6,306.7l-12.4-13.9h2.9l12.3,13.9Zm-4.9,0-12.3-13.8h2.8l12.4,13.8Z" transform="translate(-37.4 -23)" style="fill:#231f20"/><path d="M691.5,299.2v5.5H699v-9.8H688.5l-1.7-2.1h16.4v13.9H687.4v-7.5Z" transform="translate(-37.4 -23)" style="fill:#231f20"/><path d="M685.1,306.7H681V292.8h4.1Z" transform="translate(-37.4 -23)" style="fill:#231f20"/><path d="M661.8,292.8h18l-1.8,2.1h-5.2v11.8h-4.1V294.9h-5.2Z" transform="translate(-37.4 -23)" style="fill:#231f20"/><path d="M650.1,292.8v5.9h7.1v-5.9h4.2v13.9h-4.2v-5.9h-7.1v5.9h-4.2V292.8Z" transform="translate(-37.4 -23)" style="fill:#231f20"/><path d="M632.6,292.8v11.9H640V292.8h4.1v13.9H628.5V292.8Z" transform="translate(-37.4 -23)" style="fill:#231f20"/><path d="M611.5,298.1h1.2v-5.3h14v13.9H611.5Zm4.1-3.2v3.2h7v-3.2Zm0,5.3v4.5h7v-4.5Z" transform="translate(-37.4 -23)" style="fill:#231f20"/><path d="M605.9,306.7v-2.9h2.8v2.9Z" transform="translate(-37.4 -23)" style="fill:#231f20"/><path d="M598.8,304.7v-9.8h-9.6l-1.7-2.1h15.6v13.9H589.2l-1.7-2Z" transform="translate(-37.4 -23)" style="fill:#231f20"/><path d="M570.5,306.7V292.8h15.8v10.1l-3.4,3.8Zm4.2-11.8v9.8h5.1l2.3-2.7v-7.1Z" transform="translate(-37.4 -23)" style="fill:#231f20"/><path d="M564.6,306.7v-7.9l-4.4,2.8-4.5-2.8v7.9h-4.1V292.8l8.6,5.6,8.5-5.6v13.9Z" transform="translate(-37.4 -23)" style="fill:#231f20"/><path d="M547.6,306.7l-12.4-13.9h2.9l12.3,13.9Zm-4.8,0-12.4-13.8h2.9l12.3,13.8Z" transform="translate(-37.4 -23)" style="fill:#231f20"/><path d="M513.8,301.8v-9h15.4v13.9H525v-4.9Zm4.2-6.9v4.8h7.1v-4.8Z" transform="translate(-37.4 -23)" style="fill:#231f20"/><path d="M511.8,306.7h-4.1V292.8h4.1Z" transform="translate(-37.4 -23)" style="fill:#231f20"/><path d="M490.3,301.8v-9h15.4v13.9h-4.2v-4.9Zm4.2-6.9v4.8h7.1v-4.8Z" transform="translate(-37.4 -23)" style="fill:#231f20"/><path d="M484.4,304.7v-3.9H473.9v-2h10.5v-3.9h-9.7l-1.8-2.1h15.6v13.9H473l1.8-2Z" transform="translate(-37.4 -23)" style="fill:#231f20"/><path d="M460.4,306.7V292.8h4.1v11.9h7.6l-1.8,2Z" transform="translate(-37.4 -23)" style="fill:#231f20"/><path d="M443,306.7V292.8h15.8v10.1l-3.4,3.8Zm4.2-11.8v9.8h5.1l2.4-2.7v-7.1Z" transform="translate(-37.4 -23)" style="fill:#231f20"/><path d="M425.6,298.7h11.5v-2.8l-.9-1h-9.3l-1.8-2.1h14.2l1.9,2.2v5.8H429.8v3l.8.9h11.1l-1.8,2H427.4l-1.8-2.1Z" transform="translate(-37.4 -23)" style="fill:#231f20"/><path d="M412.5,292.8v5.9h7.2v-5.9h4.1v13.9h-4.1v-5.9h-7.2v5.9h-4.2V292.8Z" transform="translate(-37.4 -23)" style="fill:#231f20"/><path d="M404.3,306.7,392,292.8h2.8l12.3,13.9Zm-4.8,0-12.4-13.8H390l12.3,13.8Z" transform="translate(-37.4 -23)" style="fill:#231f20"/><path d="M370.5,301.8v-9h15.4v13.9h-4.1v-4.9Zm4.2-6.9v4.8h7.1v-4.8Z" transform="translate(-37.4 -23)" style="fill:#231f20"/><path d="M364.6,304.7v-3.9H354.1v-2h10.5v-3.9h-9.7l-1.7-2.1h15.6v13.9H353.2l1.8-2Z" transform="translate(-37.4 -23)" style="fill:#231f20"/><path d="M336.6,301.8v-9H352v13.9h-4.2v-4.9Zm4.2-6.9v4.8h7v-4.8Z" transform="translate(-37.4 -23)" style="fill:#231f20"/><path d="M323.3,292.8v11.9h7.4V292.8h4.1v13.9H319.2V292.8Z" transform="translate(-37.4 -23)" style="fill:#231f20"/><path d="M317.2,306.7h-4.1V292.8h4.1Z" transform="translate(-37.4 -23)" style="fill:#231f20"/><path d="M295.6,292.8h4v7.5l11.5-7.5v13.9h-4.2v-7.5l-11.3,7.5Z" transform="translate(-37.4 -23)" style="fill:#231f20"/><path d="M278.2,306.7V292.8H294v10.1l-3.4,3.8Zm4.2-11.8v9.8h5.1l2.3-2.7v-7.1Z" transform="translate(-37.4 -23)" style="fill:#231f20"/><path d="M274.6,299.1l1.8,2.1H265.2l1.7-2.1Z" transform="translate(-37.4 -23)" style="fill:#231f20"/><path d="M247.9,292.8H252v7.5l11.4-7.5v13.9h-4.2v-7.5l-11.3,7.5Z" transform="translate(-37.4 -23)" style="fill:#231f20"/><path d="M230.5,306.7V292.8h15.8v10.1l-3.4,3.8Zm4.2-11.8v9.8h5.1l2.3-2.7v-7.1Z" transform="translate(-37.4 -23)" style="fill:#231f20"/><path d="M222.4,306.7h-2.6l-7.3-13.9h4l4.6,9.3,4.6-9.3h4Z" transform="translate(-37.4 -23)" style="fill:#231f20"/><path d="M211.7,292.8v13.9h-4.3v-5.9h-7.3v5.9h-4.2V292.8Zm-11.5,2.1v3.8h7.2v-3.8Z" transform="translate(-37.4 -23)" style="fill:#231f20"/><path d="M192.3,299.1l1.8,2.1H182.9l1.7-2.1Z" transform="translate(-37.4 -23)" style="fill:#231f20"/><path d="M178.4,306.7h-4.8l-7.4-13.9h15.7l-1.8,2.1h-7.6Z" transform="translate(-37.4 -23)" style="fill:#231f20"/><path d="M154,306.7l-4.1-4.7,4.1-4.6h7.5v-2.5h-9.9l-1.7-2.1h15.3v6.7h-8.1l-2.3,2.5,2.3,2.7H164l1.8,2Z" transform="translate(-37.4 -23)" style="fill:#231f20"/><path d="M686.2,199a34.3,34.3,0,0,1,.7,5.6c-.3,5.3-4.6,7.9-8.6,10.6a31.2,31.2,0,0,1-9.6,1.6,4.2,4.2,0,0,1-4.6-2.3l-3.3-2.3a6.9,6.9,0,0,1-7.3,2.6,17.4,17.4,0,0,1-9-3.6c-2.3-2-5.2-4-4.3-7.9v-.7h-.3a2.9,2.9,0,0,1,.7-3.6,4,4,0,0,0,.3-4.3,54.2,54.2,0,0,1-2.3-12c-.3-1.9-.7-2.9-2.7-3.6a8.7,8.7,0,0,1-5.6-9.3,12.6,12.6,0,0,1,4.7-8.6c2.9-1.6,5.6-3.6,9.2-2.3v-.6c-7.9-5.7-13.5-11.9-14.5-22.2a81.7,81.7,0,0,1,0-18.5,32.2,32.2,0,0,1,9.2-17.9,43.2,43.2,0,0,1,24.8-11.2,40.5,40.5,0,0,1,11,.6,28,28,0,0,1,6.6,3l10.2,7.3,5.6,6.9a16.5,16.5,0,0,1,4.7,12.6c-.7,6.9-.3,14.2-4,20.5s-11.6,17.5-12.2,18.2a2.5,2.5,0,0,0-.7,2c0,.3-3.3,1.6,1.7,1s7.2,3,10.9,5.6,2,9.3,1.6,10.9-1,2.7-2.6,2.7l-5.6,1A30.2,30.2,0,0,1,686.2,199Zm-51.9-58.3a30.2,30.2,0,0,0,5.6,9,25.6,25.6,0,0,0,7.3,6.2c2.3,1.4,2.3.4.7,4.7s-3.4,8.9-4.7,13.5a58.4,58.4,0,0,0-1.6,11,12,12,0,0,0,1.3,3.6c1.6,3.3,1.3,7.6,4.6,10.3l4,2.6,5.9,3a11.6,11.6,0,0,0,9.3-1,58.8,58.8,0,0,1,14.6-5.6,8,8,0,0,0,5.6-6.3,28.8,28.8,0,0,0-1.3-15.9l-5-17.2a5.4,5.4,0,0,1,1-3,23.8,23.8,0,0,0,5-4,81,81,0,0,0,9.2-15.2c3.3-7.9,4.7-15.9.7-24.1a35,35,0,0,0-23.8-19.9,23.8,23.8,0,0,0-20.5,3.7l-4.3,1.6-6,5a29.9,29.9,0,0,0-8.3,15.9c-.6,2.3-1,4.9-1.6,7.6A101.8,101.8,0,0,0,634.3,140.7ZM675,213.5a12.6,12.6,0,0,0,8.3-8.9,6.2,6.2,0,0,0,0-3.3,36.8,36.8,0,0,0-9.3,2,40.3,40.3,0,0,0-8.3,5.3C665.7,213.8,670,216.2,675,213.5Zm15.9-37a3.8,3.8,0,0,0,3.3.6,6.2,6.2,0,0,0,2.6-3.9,10.3,10.3,0,0,0-10.6-9C687.6,168.9,687.2,173.5,690.9,176.5Zm-57.6-3.7a6.1,6.1,0,0,0,4,4c.6,0,0,3.3,1.6-1s3-8.9,4.7-14.2A13.6,13.6,0,0,0,633.3,172.8Zm13.2,36.1,7.6,2.6c3.7.7,4,.4,4.7-2.6l-15.2-7.6A6.9,6.9,0,0,0,646.5,208.9Z" transform="translate(-37.4 -23)" style="fill:#010101"/><path d="M676.6,139.1a9.3,9.3,0,0,1-1.3,9.6c-2,2.3,0,.6-7.3,6.6s-14.5,4.9-21.1-1a17.2,17.2,0,0,1-5-13.6,11.2,11.2,0,0,1,8.9-10.9c4.7-1,9.6-.3,14.6-1a7.3,7.3,0,0,1,8.9,3.7c.4-6,4.3-7.6,6.3-7.6s4,2.9,4,6.2-2,4-9,4Zm-26.4-5.6a9.9,9.9,0,0,0-5.7,8.6c.7,3.6-1.6,5.6,4.7,10.2s8.6,5.6,15.5,1a71.9,71.9,0,0,0,8-6.6,9.9,9.9,0,0,0-.4-11.3c-2.3-3.6-5.9-3.3-10.5-3.3Z" transform="translate(-37.4 -23)" style="fill:#010101"/><path d="M636.9,128.8a4.1,4.1,0,0,1,3.7-4.3c1.6,0,3.6,3.3,3.6,6v.3a3.3,3.3,0,0,1-3.3,3.3c-2.3.3-4-2.6-4-5.3Z" transform="translate(-37.4 -23)" style="fill:#010101"/></svg>