<svg id="Layer_1" data-name="Layer 1" xmlns="http://www.w3.org/2000/svg" width="282.9mm" height="100.1mm" viewBox="0 0 801.9 283.8"><path d="M92.9,55.1V72.7H78V23h55.1V55.1Zm-.1-24.8V47.8h25.4V30.3Z" transform="translate(-37.4 -23)" style="fill:#231f20"/><path d="M188,65.4l6.4,7.3H138.8V23h55.8l-6.4,7.3H153.7V44.2h37.5v7.3H153.7V65.4Z" transform="translate(-37.4 -23)" style="fill:#231f20"/><path d="M213.7,55.1V72.7H198.8V23h55.1V55.1Zm-.1-24.8V47.8H239V30.3Z" transform="translate(-37.4 -23)" style="fill:#231f20"/><path d="M315.4,23V72.7H259.6V23h14.7V65.4h26.5V23Z" transform="translate(-37.4 -23)" style="fill:#231f20"/><path d="M322.5,23h14.9V72.7H322.5Z" transform="translate(-37.4 -23)" style="fill:#231f20"/><path d="M400,72.7l-40.7-27v27H344.5V23l40.9,26.8V23H400Z" transform="translate(-37.4 -23)" style="fill:#231f20"/><path d="M417.8,72.7,405.7,59V23h56.4V72.7Zm2.8-42.4V55.8l8.4,9.6h18.3V30.3Z" transform="translate(-37.4 -23)" style="fill:#231f20"/><path d="M544.6,72.7l-40.7-27v27H489.1V23L530,49.8V23h14.6Z" transform="translate(-37.4 -23)" style="fill:#231f20"/><path d="M562.4,72.7,550.3,59V23h56.4V72.7Zm2.7-42.4V55.8l8.5,9.6h18.2V30.3Z" transform="translate(-37.4 -23)" style="fill:#231f20"/><path d="M609.5,23h14.6l16.4,33.2L656.8,23h14.6L645.1,72.7h-9.3Z" transform="translate(-37.4 -23)" style="fill:#231f20"/><path d="M730.6,23V72.7H715.7V51.5H689.4V72.7H674.2V23Zm-41,7.3V44.2h25.7V30.3Z" transform="translate(-37.4 -23)" style="fill:#231f20"/><path d="M428.3,115.5H401.1l-6.3-7.3h56.1l-26.4,49.7H407.3Z" transform="translate(-37.4 -23)" style="fill:#231f20"/><path d="M452.4,157.9l6.3-7.3h24.8l8.2-9.4-8.2-9.2H454.6V108.2h54.8l-6.3,7.3H467.7v9.2h26.9l14.8,16.5-14.8,16.7Z" transform="translate(-37.4 -23)" style="fill:#231f20"/><path d="M830.3,249.5h9.1l-3.7,5.6,3.7,5.6h-9.1V258h5.2l-1.9-2.9,1.9-2.9h-5.2Z" transform="translate(-37.4 -23)" style="fill:#231f20"/><path d="M830.3,238.4h9.1v2.7h-3.9v4.7h3.9v2.7h-9.1v-2.7h3.9v-4.7h-3.9Z" transform="translate(-37.4 -23)" style="fill:#231f20"/><path d="M835.1,233.7l-4.8,4.2v-3.1l2.8-2.5-2.8-2.5v-3.1l4.8,4.3h4.3v2.7Z" transform="translate(-37.4 -23)" style="fill:#231f20"/><path d="M839.4,222.3h-9.1v-2.7h5.2l-1.9-2.9,1.9-2.8h-5.2v-2.7h9.1l-3.7,5.5Z" transform="translate(-37.4 -23)" style="fill:#231f20"/><path d="M839.4,207.9l-2.5,2.2h-6.6V199.9h9.1Zm-7.7-.5h4.6l1.7-1.5v-3.3h-6.3Z" transform="translate(-37.4 -23)" style="fill:#231f20"/><path d="M830.3,188.6h9.1v10.1h-9.1V196H838v-4.8h-7.7Z" transform="translate(-37.4 -23)" style="fill:#231f20"/><path d="M838,178.7l1.4,1.1v7.6h-9.1v-2.7H838Z" transform="translate(-37.4 -23)" style="fill:#231f20"/><path d="M830.3,170.6l4.6-2.9,4.5,2.9v7.3h-9.1Zm7.7,4.6v-2.7l-3.1-2.1-3.2,2.1v2.7Z" transform="translate(-37.4 -23)" style="fill:#231f20"/><path d="M830.3,152.9h9.1v10.2h-9.1v-2.7H838v-4.8h-7.7Z" transform="translate(-37.4 -23)" style="fill:#231f20"/><path d="M839.4,145.9l-2.5,2.2h-6.6V137.8h9.1Zm-7.7-.5h4.6l1.7-1.6v-3.3h-6.3Z" transform="translate(-37.4 -23)" style="fill:#231f20"/><path d="M836.2,134.1h3.2v2.7h-9.1v-10h5.9Zm-4.5,0h3.1v-4.6h-3.1Z" transform="translate(-37.4 -23)" style="fill:#231f20"/><path d="M838,116.7l1.4-1.2v10.1h-9.1V115.5l1.4,1.1v6.3h2.5v-6.8h1.3v6.8H838Z" transform="translate(-37.4 -23)" style="fill:#231f20"/><path d="M839.4,104.6l-4.9,7.4h4.9v2.7h-9.1l4.9-7.4h-4.9v-2.7Z" transform="translate(-37.4 -23)" style="fill:#231f20"/><path d="M839.4,99.7h-9.1l3.7-5.5-3.7-5.6h9.1v2.7h-5.2l1.8,2.9-1.8,2.9h5.2Z" transform="translate(-37.4 -23)" style="fill:#231f20"/><path d="M838,78.5l1.4-1.1V87.5h-9.1V77.3l1.4,1.2v6.3h2.5V77.9h1.3v6.9H838Z" transform="translate(-37.4 -23)" style="fill:#231f20"/><path d="M833.8,71.9h-1.9V70.1h1.9Zm4,0H836V70.1h1.8Z" transform="translate(-37.4 -23)" style="fill:#231f20"/><path d="M839.4,59v7.8l-2.8,1.7-2.1-1.3-1.7,1.3-2.5-1.7V59l2.5-1.7,1.7,1.4,2.1-1.4Zm-5.5,5.4v-3l-1.1-.9-1.1.9v3l1.1.9Zm1.3-3v3.1l1.3.8,1.5-.9v-3l-1.4-.9Z" transform="translate(-37.4 -23)" style="fill:#231f20"/><path d="M52.6,256.8l5.5,8.7-5.5,8.8H38.4V256.8Zm-8.9,14.9H49l4-6.2-4-6.2H43.7Z" transform="translate(-37.4 -23)" style="fill:#231f20"/><path d="M76.5,271.7l2.3,2.6H59.1V256.8H78.8l-2.2,2.5H64.4v4.9H77.6v2.6H64.4v4.9Z" transform="translate(-37.4 -23)" style="fill:#231f20"/><path d="M99.8,271.6l-2.3,2.7H81.7l-2.2-2.6h14l1-1.1v-3.8H80.1v-7.3l2.4-2.7h17.9l-2.2,2.5H86.5l-1.1,1.3v3.6H99.8Z" transform="translate(-37.4 -23)" style="fill:#231f20"/><path d="M102.5,256.8h5.3v17.5h-5.3Z" transform="translate(-37.4 -23)" style="fill:#231f20"/><path d="M130.2,264.7v9.6H110.3V256.8H131l-2.2,2.5H115.6v12.4H125v-7Z" transform="translate(-37.4 -23)" style="fill:#231f20"/><path d="M152.1,274.3l-14.3-9.6v9.6h-5.3V256.8l14.4,9.4v-9.4h5.2Z" transform="translate(-37.4 -23)" style="fill:#231f20"/><path d="M171.7,271.7l2.3,2.6H154.4V256.8H174l-2.2,2.5H159.6v4.9h13.2v2.6H159.6v4.9Z" transform="translate(-37.4 -23)" style="fill:#231f20"/><path d="M189.7,256.8l5.5,8.7-5.5,8.8H175.5V256.8Zm-9,14.9H186l4-6.2-4-6.2h-5.3Z" transform="translate(-37.4 -23)" style="fill:#231f20"/><path d="M224.1,256.8v17.5h-5.3v-7.5h-9.2v7.5h-5.4V256.8Zm-14.4,2.5v4.9h9v-4.9Z" transform="translate(-37.4 -23)" style="fill:#231f20"/><path d="M245.7,274.3l-14.4-9.6v9.6h-5.2V256.8l14.4,9.4v-9.4h5.2Z" transform="translate(-37.4 -23)" style="fill:#231f20"/><path d="M261.8,256.8l5.6,8.7-5.6,8.8H247.7V256.8Zm-8.9,14.9h5.3l4-6.2-4-6.2h-5.3Z" transform="translate(-37.4 -23)" style="fill:#231f20"/><path d="M290.5,256.8l5.6,8.7-5.6,8.8H276.4V256.8Zm-8.9,14.9h5.3l4-6.2-4-6.2h-5.3Z" transform="translate(-37.4 -23)" style="fill:#231f20"/><path d="M301.8,274.3l-4.2-4.9V256.8h19.8v17.5Zm1-15v9l3,3.4h6.4V259.3Z" transform="translate(-37.4 -23)" style="fill:#231f20"/><path d="M339.4,271.7l-2.2,2.6H319.7V256.8h19.7l-2.2,2.5H325.1v12.4Z" transform="translate(-37.4 -23)" style="fill:#231f20"/><path d="M360.8,256.8v17.5H341.2V256.8h5.2v14.9h9.3V256.8Z" transform="translate(-37.4 -23)" style="fill:#231f20"/><path d="M363.1,274.3V256.8l10.8,7,10.7-7v17.5h-5.1V264.2l-5.6,3.6-5.6-3.6v10.1Z" transform="translate(-37.4 -23)" style="fill:#231f20"/><path d="M404.3,271.7l2.2,2.6H386.9V256.8h19.7l-2.3,2.5H392.1v4.9h13.3v2.6H392.1v4.9Z" transform="translate(-37.4 -23)" style="fill:#231f20"/><path d="M427.6,274.3l-14.3-9.6v9.6h-5.2V256.8l14.4,9.4v-9.4h5.1Z" transform="translate(-37.4 -23)" style="fill:#231f20"/><path d="M449.1,259.3h-6.5v15h-5.2v-15h-6.6l-2.2-2.5h22.7Z" transform="translate(-37.4 -23)" style="fill:#231f20"/><path d="M469.7,271.7l2.2,2.6H452.3V256.8H472l-2.2,2.5H457.6v4.9h13.2v2.6H457.6v4.9Z" transform="translate(-37.4 -23)" style="fill:#231f20"/><path d="M487.7,256.8l5.5,8.7-5.5,8.8H473.5V256.8Zm-9,14.9H484l4-6.2-4-6.2h-5.3Z" transform="translate(-37.4 -23)" style="fill:#231f20"/><path d="M521.4,274.3H502.2V256.8h17.7v6.6h1.5Zm-14-15v4.1h8.8v-4.1Zm0,6.7v5.7h8.8V266Z" transform="translate(-37.4 -23)" style="fill:#231f20"/><path d="M530.6,266l-8.2-9.2h6.1l4.7,5.4,4.8-5.4h6.1l-8.2,9.2v8.3h-5.3Z" transform="translate(-37.4 -23)" style="fill:#231f20"/><path d="M546.6,263.4v-3.5h3.5v3.5Zm0,7.8v-3.5h3.5v3.5Z" transform="translate(-37.4 -23)" style="fill:#231f20"/><path d="M566.4,268.1v6.2h-5.2V256.8h19.3v11.3Zm0-8.8v6.2h8.9v-6.2Z" transform="translate(-37.4 -23)" style="fill:#231f20"/><path d="M583,256.8h5.3v17.5H583Z" transform="translate(-37.4 -23)" style="fill:#231f20"/><path d="M596,268.1v6.2h-5.2V256.8h19.4v11.3Zm0-8.8v6.2h8.9v-6.2Z" transform="translate(-37.4 -23)" style="fill:#231f20"/><path d="M629.8,271.7l2.2,2.6H612.4V256.8h19.7l-2.2,2.5H617.7v4.9h13.2v2.6H617.7v4.9Z" transform="translate(-37.4 -23)" style="fill:#231f20"/><path d="M635.3,274.3l-2.2-2.6h9.6V256.8h5.2v17.5Z" transform="translate(-37.4 -23)" style="fill:#231f20"/><path d="M654.2,274.3l-4.3-4.9V256.8h19.9v17.5Zm.9-15v9l3,3.4h6.4V259.3Z" transform="translate(-37.4 -23)" style="fill:#231f20"/><path d="M691.7,271.6l-2.3,2.7H673.7l-2.3-2.6h14.1l.9-1.1v-3.8H672.1v-7.3l2.4-2.7h17.8l-2.2,2.5H678.4l-1.1,1.3v3.6h14.4Z" transform="translate(-37.4 -23)" style="fill:#231f20"/><path d="M713.5,256.8v17.5h-5.3v-7.5h-9v7.5H694V256.8h5.2v7.4h9v-7.4Z" transform="translate(-37.4 -23)" style="fill:#231f20"/><path d="M52.9,292.8v13.9H48.7v-5.9H41.6v5.9H37.4V292.8h4.2v5.9h7.1v-5.9Z" transform="translate(-37.4 -23)" style="fill:#231f20"/><path d="M70,294.9H64.8v11.8H60.7V294.9H55.5l-1.8-2.1h18Z" transform="translate(-37.4 -23)" style="fill:#231f20"/><path d="M88,294.9H82.8v11.8H78.7V294.9H73.5l-1.8-2.1H89.8Z" transform="translate(-37.4 -23)" style="fill:#231f20"/><path d="M94.7,301.8v4.9H90.6V292.8h15.3v9Zm0-6.9v4.8h7.1v-4.8Z" transform="translate(-37.4 -23)" style="fill:#231f20"/><path d="M123.3,304.6l-1.8,2.1H109l-1.8-2h11.2l.7-.9v-3H107.8V295l1.9-2.2h14.1l-1.7,2.1h-9.3l-.9,1v2.8h11.4Z" transform="translate(-37.4 -23)" style="fill:#231f20"/><path d="M126.3,298.1v-2.8h2.9v2.8Zm0,6.2v-2.8h2.9v2.8Z" transform="translate(-37.4 -23)" style="fill:#231f20"/><path d="M131.5,306.7l12.4-13.9h2.8l-12.3,13.9Zm4.9,0,12.3-13.8h2.9l-12.4,13.8Z" transform="translate(-37.4 -23)" style="fill:#231f20"/><path d="M152.4,306.7l12.3-13.9h2.9l-12.4,13.9Zm4.8,0,12.4-13.8h2.8l-12.3,13.8Z" transform="translate(-37.4 -23)" style="fill:#231f20"/><path d="M189.4,299.2v7.5H173.6V292.8H190l-1.7,2.1H177.8v9.8h7.5v-5.5Z" transform="translate(-37.4 -23)" style="fill:#231f20"/><path d="M191.7,292.8h4.1v13.9h-4.1Z" transform="translate(-37.4 -23)" style="fill:#231f20"/><path d="M213.3,294.9h-5.2v11.8H204V294.9h-5.2l-1.8-2.1h18Z" transform="translate(-37.4 -23)" style="fill:#231f20"/><path d="M230.9,292.8v13.9h-4.2v-5.9h-7.1v5.9h-4.2V292.8h4.2v5.9h7.1v-5.9Z" transform="translate(-37.4 -23)" style="fill:#231f20"/><path d="M248.3,292.8v13.9H232.7V292.8h4.1v11.9h7.4V292.8Z" transform="translate(-37.4 -23)" style="fill:#231f20"/><path d="M265.3,306.7H250.1V292.8h14v5.3h1.2Zm-11.1-11.8v3.2h7v-3.2Zm0,5.3v4.5h7v-4.5Z" transform="translate(-37.4 -23)" style="fill:#231f20"/><path d="M268.1,306.7v-2.9h2.8v2.9Z" transform="translate(-37.4 -23)" style="fill:#231f20"/><path d="M289.3,304.7l-1.7,2H273.7V292.8h15.6l-1.7,2.1H278v9.8Z" transform="translate(-37.4 -23)" style="fill:#231f20"/><path d="M293.9,306.7l-3.4-3.8V292.8h15.8v13.9Zm.8-11.8V302l2.3,2.7h5.1v-9.8Z" transform="translate(-37.4 -23)" style="fill:#231f20"/><path d="M308.1,306.7V292.8l8.5,5.6,8.6-5.6v13.9h-4.1v-7.9l-4.5,2.8-4.4-2.8v7.9Z" transform="translate(-37.4 -23)" style="fill:#231f20"/><path d="M326.4,306.7l12.3-13.9h2.9l-12.4,13.9Zm4.8,0,12.4-13.8h2.8l-12.3,13.8Z" transform="translate(-37.4 -23)" style="fill:#231f20"/><path d="M351.8,301.8v4.9h-4.2V292.8H363v9Zm-.1-6.9v4.8h7.1v-4.8Z" transform="translate(-37.4 -23)" style="fill:#231f20"/><path d="M365,292.8h4.1v13.9H365Z" transform="translate(-37.4 -23)" style="fill:#231f20"/><path d="M375.3,301.8v4.9h-4.2V292.8h15.4v9Zm-.1-6.9v4.8h7.1v-4.8Z" transform="translate(-37.4 -23)" style="fill:#231f20"/><path d="M402.1,304.7l1.7,2H388.3V292.8h15.6l-1.8,2.1h-9.7v3.9h10.5v2H392.4v3.9Z" transform="translate(-37.4 -23)" style="fill:#231f20"/><path d="M406.5,306.7l-1.8-2h7.6V292.8h4.1v13.9Z" transform="translate(-37.4 -23)" style="fill:#231f20"/><path d="M421.4,306.7l-3.4-3.8V292.8h15.8v13.9Zm.8-11.8V302l2.3,2.7h5.1v-9.8Z" transform="translate(-37.4 -23)" style="fill:#231f20"/><path d="M451.2,304.6l-1.8,2.1H436.9l-1.8-2h11.1l.8-.9v-3H435.6V295l1.9-2.2h14.2l-1.8,2.1h-9.3l-.8,1v2.8h11.4Z" transform="translate(-37.4 -23)" style="fill:#231f20"/><path d="M468.5,292.8v13.9h-4.2v-5.9h-7.2v5.9H453V292.8h4.1v5.9h7.2v-5.9Z" transform="translate(-37.4 -23)" style="fill:#231f20"/><path d="M469.7,306.7,482,292.8h2.9l-12.4,13.9Zm4.8,0,12.3-13.8h2.9l-12.4,13.8Z" transform="translate(-37.4 -23)" style="fill:#231f20"/><path d="M495.1,301.8v4.9h-4.2V292.8h15.4v9Zm-.1-6.9v4.8h7.1v-4.8Z" transform="translate(-37.4 -23)" style="fill:#231f20"/><path d="M521.8,304.7l1.8,2H508.1V292.8h15.5l-1.7,2.1h-9.7v3.9h10.5v2H512.2v3.9Z" transform="translate(-37.4 -23)" style="fill:#231f20"/><path d="M529,301.8v4.9h-4.2V292.8h15.4v9Zm0-6.9v4.8h7v-4.8Z" transform="translate(-37.4 -23)" style="fill:#231f20"/><path d="M557.6,292.8v13.9H542V292.8h4.1v11.9h7.4V292.8Z" transform="translate(-37.4 -23)" style="fill:#231f20"/><path d="M559.6,292.8h4.1v13.9h-4.1Z" transform="translate(-37.4 -23)" style="fill:#231f20"/><path d="M581.2,306.7l-11.3-7.5v7.5h-4.2V292.8l11.5,7.5v-7.5h4Z" transform="translate(-37.4 -23)" style="fill:#231f20"/><path d="M586.2,306.7l-3.4-3.8V292.8h15.8v13.9Zm.8-11.8V302l2.3,2.7h5.1v-9.8Z" transform="translate(-37.4 -23)" style="fill:#231f20"/><path d="M609.9,299.1l1.7,2.1H600.4l1.8-2.1Z" transform="translate(-37.4 -23)" style="fill:#231f20"/><path d="M628.9,306.7l-11.3-7.5v7.5h-4.2V292.8l11.4,7.5v-7.5h4.1Z" transform="translate(-37.4 -23)" style="fill:#231f20"/><path d="M633.9,306.7l-3.4-3.8V292.8h15.8v13.9Zm.8-11.8V302l2.3,2.7h5.1v-9.8Z" transform="translate(-37.4 -23)" style="fill:#231f20"/><path d="M647.1,292.8h4l4.6,9.3,4.6-9.3h4L657,306.7h-2.6Z" transform="translate(-37.4 -23)" style="fill:#231f20"/><path d="M680.9,292.8v13.9h-4.2v-5.9h-7.3v5.9h-4.3V292.8Zm-11.5,2.1v3.8h7.2v-3.8Z" transform="translate(-37.4 -23)" style="fill:#231f20"/><path d="M692.2,299.1l1.7,2.1H682.7l1.8-2.1Z" transform="translate(-37.4 -23)" style="fill:#231f20"/><path d="M704.3,294.9h-7.6l-1.8-2.1h15.7l-7.4,13.9h-4.8Z" transform="translate(-37.4 -23)" style="fill:#231f20"/><path d="M711,306.7l1.8-2h6.9L722,302l-2.3-2.5h-8v-6.7h15.2l-1.7,2.1h-9.9v2.5h7.5l4.1,4.6-4.1,4.7Z" transform="translate(-37.4 -23)" style="fill:#231f20"/><path d="M185.9,180.8l-5.6-1c-1.6,0-2.3-1-2.6-2.7s-2-8.2,1.6-10.9,6-6.3,10.9-5.6,1.7-.7,1.7-1a2.5,2.5,0,0,0-.7-2c-.6-.7-8.6-11.9-12.2-18.2s-3.3-13.6-4-20.5a16.5,16.5,0,0,1,4.7-12.6l5.6-6.9,10.2-7.3a26.9,26.9,0,0,1,6.7-3,39.5,39.5,0,0,1,10.9-.6,43.2,43.2,0,0,1,24.8,11.2,32.2,32.2,0,0,1,9.2,17.9,81.7,81.7,0,0,1,0,18.5c-.9,10.3-6.6,16.5-14.5,22.2v.6c3.6-1.3,6.3.7,9.3,2.3a12.9,12.9,0,0,1,4.6,8.6,8.7,8.7,0,0,1-5.6,9.3c-2,.7-2.4,1.7-2.7,3.6a54.2,54.2,0,0,1-2.3,12,4.2,4.2,0,0,0,.3,4.3,2.9,2.9,0,0,1,.7,3.6h-.3v.7c1,3.9-2,5.9-4.3,7.9a17.4,17.4,0,0,1-9,3.6,6.9,6.9,0,0,1-7.3-2.6l-3.3,2.3a4.2,4.2,0,0,1-4.6,2.3,31.2,31.2,0,0,1-9.6-1.6c-4-2.7-8.3-5.3-8.6-10.6a34.3,34.3,0,0,1,.7-5.6A30.2,30.2,0,0,1,185.9,180.8Zm58.9-54.6c-.6-2.7-1-5.3-1.6-7.6a29.9,29.9,0,0,0-8.3-15.9l-5.9-5-4.4-1.6a23.8,23.8,0,0,0-20.5-3.7,35,35,0,0,0-23.8,19.9c-4,8.2-2.6,16.2.7,24.1a86.6,86.6,0,0,0,9.2,15.2,23.8,23.8,0,0,0,5,4,5.4,5.4,0,0,1,1,3l-5,17.2a28.8,28.8,0,0,0-1.3,15.9,8,8,0,0,0,5.6,6.3,58.8,58.8,0,0,1,14.6,5.6,11.6,11.6,0,0,0,9.3,1l5.9-3,4-2.6c3.3-2.7,3-7,4.6-10.3a12,12,0,0,0,1.3-3.6,58.4,58.4,0,0,0-1.6-11c-1.3-4.6-3-9.2-4.6-13.5s-1.7-3.3.6-4.7a25.6,25.6,0,0,0,7.3-6.2,30.2,30.2,0,0,0,5.6-9A101.8,101.8,0,0,0,244.8,126.2Zm-33.7,82.4a40.3,40.3,0,0,0-8.3-5.3,36.9,36.9,0,0,0-9.2-2,4.7,4.7,0,0,0,0,3.3,12.3,12.3,0,0,0,8.2,8.9C206.8,216.2,211.1,213.8,211.1,208.6Zm-20.5-44.4a10.3,10.3,0,0,0-10.6,9,6.2,6.2,0,0,0,2.6,3.9,3.8,3.8,0,0,0,3.3-.6C189.6,173.5,189.2,168.9,190.6,164.2Zm42.7-2.6c1.6,5.3,2.9,9.9,4.6,14.2s1,1,1.6,1a6.1,6.1,0,0,0,4-4A13.6,13.6,0,0,0,233.3,161.6Zm0,39.7L218,208.9c.7,3,1,3.3,4.7,2.6l7.6-2.6A7.1,7.1,0,0,0,233.3,201.3Z" transform="translate(-37.4 -23)" style="fill:#010101"/><path d="M201.2,135.1c-7,0-9-.7-9-4s2-6.2,4-6.2,6,1.6,6.3,7.6a7.3,7.3,0,0,1,8.9-3.7c5,.7,9.9,0,14.6,1a11.2,11.2,0,0,1,8.9,10.9,17.2,17.2,0,0,1-5,13.6c-6.6,5.9-13.9,6.9-21.1,1s-5.3-4.3-7.3-6.6a9.3,9.3,0,0,1-1.3-9.6Zm13.9-3c-4.7,0-8.3-.3-10.6,3.3a9.9,9.9,0,0,0-.4,11.3,71.9,71.9,0,0,0,8,6.6c6.9,4.6,9.2,3.6,15.5-1s4-6.6,4.7-10.2a9.9,9.9,0,0,0-5.7-8.6Z" transform="translate(-37.4 -23)" style="fill:#010101"/><path d="M239.9,128.8c0,2.7-1.7,5.6-4,5.3a3.3,3.3,0,0,1-3.3-3.3v-.3c0-2.7,2-6,3.6-6a4.1,4.1,0,0,1,3.7,4.3Z" transform="translate(-37.4 -23)" style="fill:#010101"/></svg>